<?xml version="1.0" standalone="no"?>
<!DOCTYPE svg PUBLIC "-//W3C//DTD SVG 20010904//EN"
 "http://www.w3.org/TR/2001/REC-SVG-20010904/DTD/svg10.dtd">
<svg version="1.0" xmlns="http://www.w3.org/2000/svg"
 width="341.000000pt" height="331.000000pt" viewBox="0 0 341.000000 331.000000"
 preserveAspectRatio="xMidYMid meet">

<g transform="translate(0.000000,331.000000) scale(0.100000,-0.100000)"
fill="#000000" stroke="none">
<path d="M595 2571 c-179 -52 -301 -177 -351 -356 -20 -74 -20 -927 1 -1004
47 -177 201 -324 377 -360 36 -8 282 -10 765 -9 l712 3 -35 58 -36 57 -657 0
c-404 0 -679 4 -712 10 -79 15 -137 47 -200 110 -90 90 -103 132 -107 373 l-4
197 497 0 497 0 -35 63 -35 62 -461 3 -461 2 0 179 c0 151 3 189 20 245 24 76
67 136 133 186 69 52 134 72 257 79 l106 6 -33 58 -34 57 -72 -1 c-40 0 -99
-8 -132 -18z"/>
<path d="M1356 2530 l36 -60 697 0 c383 0 713 -3 734 -6 61 -11 138 -63 172
-118 29 -48 30 -52 33 -202 2 -93 -1 -168 -8 -194 -15 -56 -101 -144 -156
-159 -25 -7 -169 -11 -391 -11 -194 0 -353 -3 -353 -6 0 -4 120 -216 268 -470
l267 -464 253 0 252 0 0 60 0 60 -217 2 -217 3 -196 340 -196 340 260 5 c278
6 296 9 389 63 84 50 145 142 167 255 19 97 8 312 -19 384 -31 80 -105 159
-189 200 l-67 33 -777 3 -777 2 35 -60z"/>
<path d="M1600 2113 c11 -21 263 -456 558 -968 l537 -930 69 -3 c58 -3 68 -1
63 12 -4 9 -254 445 -558 971 l-551 955 -70 0 -69 0 21 -37z"/>
<path d="M350 435 l0 -225 120 0 120 0 0 25 c0 25 -1 25 -90 25 l-90 0 0 85 0
85 90 0 c89 0 90 0 90 25 0 25 -1 25 -90 25 l-90 0 0 65 0 65 90 0 c89 0 90 0
90 25 l0 25 -120 0 -120 0 0 -225z"/>
<path d="M1780 545 c0 -42 -3 -55 -15 -55 -9 0 -15 -9 -15 -25 0 -16 6 -25 15
-25 12 0 15 -19 15 -115 l0 -115 25 0 25 0 0 115 0 115 25 0 c20 0 25 5 25 25
0 20 -5 25 -25 25 -24 0 -25 3 -25 55 0 52 -1 55 -25 55 -24 0 -25 -3 -25 -55z"/>
<path d="M712 493 c-31 -6 -54 -45 -50 -84 2 -25 11 -39 38 -56 71 -44 83 -58
76 -81 -9 -27 -51 -30 -77 -6 -14 13 -21 13 -40 3 l-23 -12 32 -28 c36 -33 77
-37 121 -14 33 16 41 33 41 79 0 37 -15 54 -76 84 -47 24 -60 45 -38 63 13 10
20 10 35 0 20 -12 59 -7 59 8 0 25 -58 51 -98 44z"/>
<path d="M1006 489 c-15 -4 -37 -16 -47 -25 -18 -16 -19 -16 -19 5 0 18 -5 22
-27 19 l-28 -3 -3 -217 -2 -218 30 0 30 0 1 103 c0 56 3 96 6 89 8 -20 59 -42
97 -42 48 0 102 48 117 103 30 113 -54 216 -155 186z m64 -54 c51 -27 59 -117
14 -166 -12 -13 -31 -19 -60 -19 -57 0 -84 33 -84 100 0 82 60 121 130 85z"/>
<path d="M1309 491 c-69 -22 -109 -76 -109 -149 0 -107 132 -179 220 -119 74
50 95 127 54 198 -32 55 -109 87 -165 70z m76 -55 c63 -27 76 -106 26 -157
-84 -84 -213 32 -140 125 19 25 49 44 72 45 4 1 23 -5 42 -13z"/>
<path d="M1660 493 c-8 -3 -25 -15 -37 -26 l-23 -20 0 21 c0 17 -6 22 -25 22
l-25 0 0 -140 0 -140 24 0 c23 0 24 2 28 99 4 114 13 131 69 131 29 0 39 5 44
21 4 11 5 22 3 24 -9 7 -45 13 -58 8z"/>
<path d="M1963 490 c-29 -12 -55 -53 -51 -81 2 -14 22 -37 48 -56 77 -55 82
-61 70 -83 -13 -25 -65 -27 -78 -4 -7 13 -13 14 -31 5 -11 -7 -21 -15 -21 -20
0 -19 43 -44 84 -48 40 -5 48 -2 76 25 40 41 39 75 -3 116 -18 17 -47 39 -65
48 -34 18 -42 45 -16 55 9 3 25 1 35 -5 22 -14 49 -6 49 15 0 11 -58 45 -72
42 -2 0 -13 -4 -25 -9z"/>
</g>
</svg>
